<svg version="1" xmlns="http://www.w3.org/2000/svg" width="644" height="644" viewBox="0 0 483 483"><path d="M.9 28.4c-.1.6-.2 96.8-.2 213.9L.5 455h93.1l-.1-124.1c0-68.2.3-124.3.7-124.5.5-.3 17.8 27.2 26.8 42.6.5.8 4.3 7 8.4 13.8 4.2 6.7 7.6 12.4 7.6 12.6 0 .2 4.6 7.7 10.1 16.7 5.6 9 10.9 17.7 11.9 19.4 1.6 2.8 13.7 22.8 36.5 60 5.3 8.8 10.6 17.4 11.6 19.2 2.6 4.7 6.8 11.3 9.6 15.5l2.5 3.7 22.1-.2 22.1-.2 4.7-7.5c2.5-4.1 5.7-9.4 7-11.7 1.3-2.3 6.2-10.6 10.9-18.4 4.7-7.8 9.4-15.8 10.6-17.8 1.2-2 9.9-16.7 19.4-32.6 9.5-16 22.1-37.1 28-47 36.9-62.1 44.4-74.5 44.8-74.1.2.3.6 55.3.7 122.3.2 67 .4 124.2.4 127l.1 5.3h92.7l-.3-103.8c-.1-57-.4-152.7-.5-212.7-.2-60-.4-109.5-.6-110.1-.3-.8-12.4-1.1-40.8-1l-40.4.1-8.9 15C386.3 50.7 375 69.9 366 85c-9 15.1-16.9 28.4-17.5 29.5-.5 1.1-1.8 3.1-2.6 4.5-.9 1.4-8.3 13.7-16.4 27.5-8.2 13.7-19.5 32.8-25.2 42.3-5.7 9.6-10.3 17.8-10.3 18.3s-.4.9-1 .9c-.5 0-1 .4-1 1 0 .5-6.6 12.1-14.8 25.7-8.1 13.7-19.2 32.3-24.7 41.5l-9.9 16.7-2.9-4.7c-1.5-2.6-3.2-5.4-3.7-6.2-.8-1.5-54.2-90-106.7-177-15.1-25-31.7-52.7-37-61.6l-9.5-16H41.9c-28.1 0-40.9.3-41 1z"/></svg>