<svg version="1" xmlns="http://www.w3.org/2000/svg" width="113.333" height="113.333" viewBox="0 0 85 85"><path d="M40.8 6.7C38.8 9.2 27 30.6 27 31.9c0 .7 5.2 1.1 16 1.1 8.8 0 16-.2 16-.4 0-1.5-7.3-12.6-8.2-12.6-.6 0-.8-.3-.5-.7C51 18.6 44 5 42.9 5c-.3 0-1.3.8-2.1 1.7zm-17 30.7c-1.7 1.7-3.9 5.1-5 7.6s-2.6 5.2-3.3 6c-.6.8-2.6 4-4.4 7.2L8 63.8h8c4.5 0 7.8-.4 7.4-.9-.3-.5.3-.9 1.3-.9 2.2 0 7.3-8.8 7.3-12.5 0-1.5.6-2.5 1.4-2.5 1.4 0 7.6-9.6 7.6-11.7 0-.5-3.2-.9-7.1-.9-6.7 0-7.4.2-10.1 3zm20.2-2c0 .7 1.3 3.2 2.8 5.7 1.6 2.4 4.6 7.7 6.7 11.7 5.1 9.8 6.8 11 15.5 11 3.9 0 7-.4 7-.9 0-1.3-14.1-25.8-15.6-27-2-1.6-16.4-2-16.4-.5zM5.7 68.2C3 71.8 0 77.4 0 78.8c0 1.5 13.2 1.1 15.7-.4 1.8-1.2 5.6-7 8.1-12.7.2-.4-3.2-.7-7.7-.7-7.9 0-8 .1-10.4 3.2zm32.9 3.3c-2 3.4-3.6 6.7-3.6 7.2 0 .7 2.9 1.1 7.5 1.1 4.1 0 7.5-.4 7.5-1 0-.5.6-.6 1.3-.1 1.8 1.1 33.7 1.2 33.7 0 0-2.5-6.5-11.9-8.8-12.8-1.4-.5-9.6-.9-18.3-.8l-15.7.2-3.6 6.2z"/></svg>