<svg xmlns="http://www.w3.org/2000/svg" width="85.333" height="74.735"><path d="M7.238 74.735H0V73.27l2.16-4.267 2.162-4.267 2.045-2.333 2.046-2.333h15.641l-2.65 5.194-2.65 5.194-2.139 2.14-2.139 2.138zm5.429-5.333h.666v-1.333H12v1.333zm-1.334-2.667H12v-1.333h-1.333v1.333zm31.412 8h-8.078v-1.428l3.668-6.423 3.669-6.423 15.998-.172L74 60.118l2.242.703 2.243.703 3.424 5.843 3.424 5.843v1.438l-16.263-.012-16.263-.011-1.993-1.612-1.993-1.611 1.002 1.667 1.001 1.666zm5.922-4h.666v-1.333H48v1.333zm5.333 0h.667v-1.333h-1.334v1.333zm12 0h.667v-1.333h-1.334v1.333zm5.333 0H72v-1.333h-1.333v1.333zm-16-2.666H56v-1.334h-1.333v1.334zm9.334 0h.666v-1.334H64v1.334zm-20-4h.666v-1.334H44v1.334zm-28.645-5.334H7.888l3.658-6.333 3.66-6.333.806-.667.806-.667 1.738-4.297 1.737-4.297 3.123-3.37 3.123-3.37h14.794v.998l-3.45 6.174-3.451 6.174-1.216-.751L32 41.244v5.63l-3 5.264-3 5.264-1.736-.652-1.736-.65.815 1.317.814 1.318zm5.978-4h.667v-1.333h-1.334v1.333zm-4-6.666h.667v-1.334h-1.334v1.334zm10.667-12h.666v-1.334H28v1.334zm-1.334-2.667H28v-1.333h-1.333v1.333zm41.589 25.333h-7.079l-2.089-1.666-2.088-1.667-3.96-7.333-3.96-7.334-2.868-4.666-2.868-4.667-.005-1-.005-1h14.157l2.089 1.667 2.088 1.666 3.96 7.334 3.96 7.333 2.868 4.667 2.868 4.666.005 1 .005 1zm-4.255-6.666h.666v-1.334H64v1.334zM66 49.402h.667v-1.333h-1.334v1.333zm-12-9.333h.667v-1.334h-1.334v1.334zm1.333-2.667H56v-1.333h-1.333v1.333zM42.667 27.92h-16v-1.29l2.692-4.947 2.692-4.947 4.465-7.941L40.981.853 42.26.426 43.539 0l3.645 6.697 3.645 6.697-.954 1.543-.954 1.544 1.413-.873 1.412-.873 3.46 5.904 3.46 5.904v1.377zm2-2.518h.666v-1.333H44v1.333zm-5.334-1.333H40v-1.334h-1.333v1.334zM38 21.402h.667v-1.333h-1.334v1.333zm10.667-2.667h.666v-1.333H48v1.333z" fill="#fff"/></svg>